<svg height="654" viewBox="0 0 653 654" width="653" xmlns="http://www.w3.org/2000/svg" xmlns:xlink="http://www.w3.org/1999/xlink"><linearGradient id="a" x1="49.999306%" x2="49.999306%" y1=".001253%" y2="99.998908%"><stop offset="0" stop-color="#5c1013"/><stop offset=".0148" stop-color="#5c1013"/><stop offset=".6118" stop-color="#721419"/><stop offset="1" stop-color="#7a151b"/></linearGradient><linearGradient id="b" x1="25.001909%" x2="75.002877%" y1="75.00155%" y2="25.000582%"><stop offset="0" stop-color="#7a151b"/><stop offset=".4855" stop-color="#78151a"/><stop offset=".7016" stop-color="#711319"/><stop offset=".8636" stop-color="#641116"/><stop offset=".9988" stop-color="#520e11"/><stop offset="1" stop-color="#520e11"/></linearGradient><linearGradient id="c" x1="16.20886%" x2="84.117558%" y1="64.995946%" y2="34.860694%"><stop offset="0" stop-color="#b34141"/><stop offset=".0148" stop-color="#b34141"/><stop offset=".1216" stop-color="#a9393a"/><stop offset=".4584" stop-color="#8f2529"/><stop offset=".7616" stop-color="#80191f"/><stop offset="1" stop-color="#7a151b"/></linearGradient><mask id="d" fill="#fff"><path d="m22.79.77s-22.6 0-22.6 22.6v18.65 140.38 289.03 156.23 2.8c0 22.6 22.6 22.6 22.6 22.6h215.27c9.71 0 11.07-8.33 11.26-10.68 2.32-12.13 15.55-12.19 15.55-12.19h122.79c12.06 0 15 9.12 15.71 13.56h.06c1.25 9.3 11.17 9.3 11.17 9.3h215.27c22.6 0 22.6-22.6 22.6-22.6v-607.08s0-22.6-22.6-22.6z" fill="#fff" fill-rule="evenodd"/></mask><mask id="e" fill="#fff"><path d="m11.79.07c-5.08.13-11.3 2.2-11.3 11.3v18.65 140.38 289.03 156.23 2.8c0 9.1 6.22 11.17 11.44 11.3h215.1c.02-.1.04-.21.04-.3.03-.4.09-.81.16-1.2 3.21-16.82 18.8-21.33 26.6-21.37h122.85c13.82 0 23.91 8.28 26.62 21.7.11.37.2.76.27 1.14.03.01.05.02.05.02h215.27c9.1 0 11.17-6.22 11.3-11.44v-5.21-153.67-289.03-159.03c-.13-5.08-2.2-11.3-11.3-11.3z" fill="#fff" fill-rule="evenodd"/></mask><mask id="f" fill="#fff"><path d="m.84 10.74v70.35c0 63.85 14.6 79.67 14.6 79.67 77.69 52.83 602.31 453.71 612.76 422.35l-.99-573.07c-.13-4.87-4.21-8.96-11.55-8.96l-603.47-.1c-7.2 0-11.35 4.96-11.35 9.76" fill="#fff" fill-rule="evenodd"/></mask><g fill="none" fill-rule="evenodd"><g fill-rule="nonzero"><path d="m.19.77h652.29v652.29h-652.29z" fill="url(#a)" mask="url(#d)"/><path d="m-314.36 314.92 629.7-629.7 629.69 629.7-629.69 629.69z" fill="url(#b)" mask="url(#e)" transform="translate(11 12)"/><path d="m-227.11 102.47 751.53-334.59 331.73 745.09-751.52 334.6z" fill="url(#c)" mask="url(#f)" transform="translate(12 11)"/><g fill="#fff" transform="translate(40 127)"><path d="m312.05 40.71c-2.66 0-3.37-.93-3.37-3.37v-28.99c0-2.51.72-3.37 3.37-3.37l-1-4.23h-10.12l-15.58 24.25-15.43-24.25h-9.97l-1 4.23c2.66 0 3.37.86 3.37 3.37v28.99c0 2.44-.72 3.37-3.37 3.37l1 4.23h11.98l1-4.23c-2.65 0-3.3-.93-3.3-3.37v-20.31c0-2.01-.29-5.02-.29-5.02s1.22 2.8 2.51 4.88l11.41 17.8h3.23l11.84-18.3c1.36-2.15 2.58-4.81 2.58-4.81s-.29 2.87-.29 4.88v20.88c0 2.44-.65 3.37-3.37 3.37l1 4.23h12.77zm-80.95-14.49h-14.71l7.58-19.84zm17.08 14.49c-2.3 0-3.16-.57-4.09-3.09l-14.64-36.88h-10l-14.61 36.88c-1 2.58-1.72 3.09-4.09 3.09l1 4.23h11.77l1-4.23c-2.58 0-3.37-.5-2.44-3.09l2.22-5.6h18.73l2.22 5.6c.86 2.44.29 3.09-2.3 3.09l1 4.23h13.28z"/><path d="m353.02 26.22h-14.71l7.58-19.84zm17.08 14.49c-2.3 0-3.16-.57-4.09-3.09l-14.64-36.88h-10l-14.61 36.88c-1 2.58-1.72 3.09-4.09 3.09l1 4.23h11.77l1-4.23c-2.58 0-3.37-.5-2.44-3.09l2.22-5.6h18.73l2.22 5.6c.86 2.44.29 3.09-2.3 3.09l1 4.23h13.28z"/><path d="m3.97 26.57h163.34v2.83h-163.34z"/><path d="m405.54 26.57h163.34v2.83h-163.34z"/><path d="m3.83 375.91h565.05v4.52h-565.05z"/><path d="m565.75 240.37-2.09-8.82h-24.22l-2.09 8.82c5.53 0 6.88 1.79 6.88 7.03v40.81c0 3.59.6 9.42.6 9.42s-2.69-5.23-5.23-8.67l-44.1-57.41h-20.63l-2.09 8.82c5.53 0 7.03 1.79 7.03 7.03v60.4c0 5.08-1.49 7.03-7.03 7.03l2.09 8.82h24.37l1.94-8.82c-5.53 0-6.73-1.94-6.73-7.03v-44.85c0-3.14-.6-8.97-.6-8.97s2.84 5.38 5.23 8.37l47.39 61.89h12.41v-76.84c0-5.23 1.34-7.03 6.87-7.03m-128.86 37.23c0 23.62-8.67 34.53-27.96 34.53-19.14 0-27.96-10.91-27.96-34.53 0-23.47 8.82-34.53 27.96-34.53 19.29 0 27.96 11.06 27.96 34.53m18.54 0c0-32.29-18.09-47.39-46.49-47.39-28.25 0-46.49 15.1-46.49 47.39s18.24 47.39 46.49 47.39c28.4 0 46.49-15.1 46.49-47.39m-111.52 37.22c-5.53 0-6.88-1.94-6.88-7.03v-60.4c0-5.23 1.35-7.03 6.88-7.03l-2.09-8.82h-27.36l-1.94 8.82c5.53 0 6.88 1.79 6.88 7.03v60.4c0 5.08-1.35 7.03-6.88 7.03l1.94 8.82h27.36zm-49.93-29.15-1.94-9.12h-31.99l-2.09 9.12h2.54c6.13 0 7.33 1.79 7.33 6.73v15.85c-4.48 2.39-11.06 4.19-17.49 4.19-21.08 0-31.84-13.3-31.84-34.53 0-21.38 11.36-34.98 32.14-34.98 10.61 0 21.53 4.04 24.52 14.8h5.53l4.34-17.79c-4.04-2.24-17.04-9.72-35.43-9.72-29.15 0-49.63 17.04-49.63 47.54 0 33.19 22.87 47.24 49.63 47.24 21.83 0 24.67-6.13 36.93-7.18l1.94-8.67c-3.29 0-4.19-1.49-4.19-6.43v-10.32c0-4.93 1.35-6.73 7.18-6.73zm-108.69 18.69-7.47-1.79c-1.35 6.88-2.84 9.27-11.51 9.27h-29.15v-30.05h21.83c5.68 0 7.62 1.2 7.62 6.28l7.18-1.94v-20.18l-7.18-2.09c0 5.08-1.94 6.28-7.62 6.28h-21.83v-26.91h21.83c10.76 0 12.56 1.79 13.01 8.97l7.33-1.79v-18.84h-64.73l-2.09 8.82c5.53 0 7.03 1.79 7.03 7.03v60.4c0 5.08-1.49 7.03-7.03 7.03l2.09 8.82h68.62zm-115.85-46.05c0 10.02-6.73 15.4-19.14 15.4h-18.83v-31.09h19.13c12.41 0 18.84 5.38 18.84 15.69m29.45 56.51h-1.79c-7.33 0-9.42-3.14-11.96-10.46-2.84-8.07-4.93-19.58-15.85-23.02 11.51-4.04 17.79-12.26 17.79-23.62 0-16.59-13.01-26.16-34.68-26.16h-43.5l-2.09 8.82c5.53 0 7.03 1.94 7.03 7.03v60.4c0 5.08-1.35 7.03-7.03 7.03l2.09 8.82h27.5l2.09-8.82c-5.53 0-7.03-1.94-7.03-7.03v-22.57h18.24c19.28 0 12.56 28.25 26.61 38.42h20.48z"/><path d="m571.51 164.83c0-18.54-14.2-25.12-34.98-28.85-12.86-2.39-18.84-5.83-18.84-13.16 0-8.52 8.22-13.16 18.39-13.16 8.22 0 17.64 2.54 21.68 12.26h5.68l3.89-16.44c-4.04-2.09-15.25-7.03-31.39-7.03-19.88 0-34.83 10.46-34.83 27.21 0 16.89 14.65 24.22 30.2 26.91 16.89 2.99 22.87 7.03 22.87 15.25 0 9.87-9.57 14.2-18.99 14.2-10.61 0-21.68-3.59-25.12-14.95h-5.83l-4.04 17.34c4.04 2.39 16.74 8.97 34.68 8.97 19.89 0 36.63-9.87 36.63-28.55m-87.3 0c0-18.54-14.2-25.12-34.98-28.85-12.86-2.39-18.84-5.83-18.84-13.16 0-8.52 8.22-13.16 18.39-13.16 8.22 0 17.64 2.54 21.68 12.26h5.68l3.89-16.44c-4.04-2.09-15.25-7.03-31.39-7.03-19.88 0-34.83 10.46-34.83 27.21 0 16.89 14.65 24.22 30.2 26.91 16.89 2.99 22.87 7.03 22.87 15.25 0 9.87-9.57 14.2-18.99 14.2-10.61 0-21.68-3.59-25.12-14.95h-5.83l-4.04 17.34c4.04 2.39 16.74 8.97 34.68 8.97 19.88 0 36.63-9.87 36.63-28.55m-84.02-56.06-1.94-8.82h-26.16l-1.94 8.82c5.53 0 6.88 1.79 6.88 7.03v44.85c0 11.21-8.07 19.43-22.87 19.43-15.1 0-22.72-8.22-22.72-19.43v-44.85c0-5.23 1.2-7.03 6.88-7.03l-2.09-8.82h-27.83l-2.09 8.82c5.53 0 6.88 1.79 6.88 7.03v44.7c0 20.18 15.25 32.89 40.51 32.89 24.52 0 39.77-12.71 39.77-32.89v-44.7c-.01-5.24 1.19-7.03 6.72-7.03m-109.88 0-2.09-8.82h-24.22l-2.09 8.82c5.53 0 6.88 1.79 6.88 7.03v40.81c0 3.59.6 9.42.6 9.42s-2.69-5.23-5.23-8.67l-44.1-57.41h-20.63l-2.09 8.82c5.53 0 7.03 1.79 7.03 7.03v60.4c0 5.08-1.49 7.03-7.03 7.03l2.09 8.82h24.37l1.94-8.82c-5.53 0-6.73-1.94-6.73-7.03v-44.85c0-3.14-.6-8.97-.6-8.97s2.84 5.38 5.23 8.37l47.39 61.89h12.41v-76.84c0-5.24 1.34-7.03 6.87-7.03m-108.53 63.98-7.47-1.79c-1.35 6.88-2.84 9.27-11.51 9.27h-29.15v-30.05h21.83c5.68 0 7.62 1.2 7.62 6.28l7.18-1.94v-20.18l-7.18-2.09c0 5.08-1.94 6.28-7.62 6.28h-21.83v-26.91h21.83c10.76 0 12.56 1.79 13.01 8.97l7.33-1.79v-18.84h-64.73l-2.09 8.82c5.53 0 7.03 1.79 7.03 7.03v60.4c0 5.08-1.49 7.03-7.03 7.03l2.09 8.82h68.62zm-87.15-18.69-1.94-9.12h-31.99l-2.09 9.12h2.54c6.13 0 7.33 1.79 7.33 6.73v15.85c-4.48 2.39-11.06 4.19-17.49 4.19-21.08 0-31.84-13.3-31.84-34.53 0-21.38 11.36-34.98 32.14-34.98 10.61 0 21.53 4.04 24.52 14.8h5.53l4.34-17.79c-4.04-2.24-17.04-9.72-35.43-9.72-29.15 0-49.63 17.04-49.63 47.54 0 33.19 22.87 47.24 49.63 47.24 21.83 0 24.67-6.13 36.93-7.18l1.94-8.67c-3.29 0-4.19-1.49-4.19-6.43v-10.32c0-4.93 1.35-6.73 7.18-6.73z"/></g></g><path d="m11.58 489.82h32.37v32.37h-32.37z"/><path d="m608.89 492.73h32.37v32.37h-32.37z"/></g></svg>